<?xml version="1.0" encoding="UTF-8"?>
<svg id="Capa_2" data-name="Capa 2" xmlns="http://www.w3.org/2000/svg" viewBox="0 0 148.25 84.55">
  <defs>
    <style>
      .cls-1 {
        fill: #90c151;
      }

      .cls-2 {
        fill: #383838;
      }

      .cls-3 {
        fill: #f4f4f4;
        stroke: #90c151;
        stroke-miterlimit: 10;
        stroke-width: .75px;
      }

      .cls-4 {
        fill: #eb661b;
      }
    </style>
  </defs>
  <g id="Capa_1-2" data-name="Capa 1">
    <g>
      <path class="cls-2" d="M14.32,33.18H4.29c-1.39,0-2.33-.1-2.81-.3-.48-.2-.72-.52-.72-.98V5.06c0-.74,.31-1.27,.94-1.59,.62-.33,1.7-.49,3.23-.49H14.5c5.44,0,9.2,1.07,11.27,3.21,2.07,2.14,3.1,6.03,3.1,11.68s-1.08,9.61-3.23,11.89c-2.16,2.28-5.93,3.42-11.31,3.42Zm-.34-23.86c-.68,0-1.13,.06-1.36,.17V26.67l1.62,.17c.85,0,1.5-.68,1.94-2.04,.44-1.36,.66-3.71,.66-7.06s-.23-5.59-.68-6.72c-.45-1.13-1.18-1.7-2.17-1.7Z"/>
      <path class="cls-2" d="M37.12,0c1.87,0,3.34,.28,4.4,.83s1.6,1.55,1.6,3c0,2.55-1.99,3.83-5.95,3.83s-5.95-1.28-5.95-3.83,1.97-3.83,5.91-3.83Zm5.78,11.19v20.97c0,.31-.82,.56-2.45,.74-1.63,.18-3.3,.28-5.02,.28s-2.82-.08-3.32-.23c-.5-.16-.74-.42-.74-.79V11.95c0-.62,.8-1.24,2.4-1.85,1.6-.61,3.35-.91,5.25-.91,2.58,0,3.87,.67,3.87,2Z"/>
      <path class="cls-2" d="M59.88,30.37v-2.47h-.34c-.11,.14-.31,.32-.6,.53-.28,.21-.99,.5-2.11,.87-1.12,.37-2.38,.55-3.79,.55s-2.59-.21-3.55-.64c-.96-.43-1.72-.96-2.25-1.6-.54-.64-.96-1.5-1.28-2.57-.48-1.67-.72-3.94-.72-6.8,0-3.29,.69-5.81,2.08-7.57,.54-.71,1.34-1.31,2.4-1.81,1.06-.5,2.2-.74,3.42-.74s2.23,.13,3.02,.4c.79,.27,1.39,.59,1.79,.96,.79,.79,1.25,1.49,1.36,2.08l.04,.38h.34l.38-1.66c.28-1.19,2.52-1.79,6.72-1.79,1.87,0,3,.28,3.4,.85,.23,.34,.37,.66,.43,.96,.06,.3,.08,.74,.08,1.34V29.48c0,3.35-1.09,5.9-3.27,7.66-2.18,1.76-5.39,2.64-9.61,2.64-4.48,0-7.53-.44-9.14-1.32-.71-.4-1.06-.81-1.06-1.23,0-.68,.28-1.83,.83-3.45,.55-1.62,1.07-2.42,1.55-2.42,.11,0,.51,.1,1.19,.3,2.15,.57,3.91,.85,5.25,.85s2.25-.17,2.72-.51c.47-.34,.7-.88,.7-1.62Zm-1.7-5.36c.31,0,.57-.11,.77-.34,.2-.23,.3-.48,.3-.77V15.14c-.11-.59-.43-.89-.94-.89-1.08,0-1.62,1.77-1.62,5.32,0,1.64,.13,2.96,.4,3.96,.27,.99,.63,1.49,1.08,1.49Z"/>
      <path class="cls-2" d="M79.19,0c1.87,0,3.34,.28,4.4,.83s1.6,1.55,1.6,3c0,2.55-1.99,3.83-5.95,3.83s-5.95-1.28-5.95-3.83,1.97-3.83,5.91-3.83Zm5.78,11.19v20.97c0,.31-.82,.56-2.45,.74-1.63,.18-3.3,.28-5.02,.28s-2.82-.08-3.32-.23c-.5-.16-.74-.42-.74-.79V11.95c0-.62,.8-1.24,2.4-1.85,1.6-.61,3.35-.91,5.25-.91,2.58,0,3.87,.67,3.87,2Z"/>
      <path class="cls-2" d="M104.45,32.79c-.51,.48-1.67,.72-3.49,.72s-3.32-.12-4.51-.36c-1.19-.24-2.33-.72-3.4-1.42-2.07-1.39-3.1-4.28-3.1-8.68v-6.63h-2.13c-.31,0-.58-.33-.81-.98-.23-.65-.34-1.54-.34-2.68s.18-2.13,.53-3c.35-.86,.81-1.3,1.38-1.3h1.36V3.32c0-.88,.86-1.59,2.57-2.13,1.72-.54,3.4-.81,5.04-.81,2.58,0,3.87,.64,3.87,1.91v6.17h3.15c.74,0,1.11,1.06,1.11,3.19,0,1.39-.16,2.53-.49,3.42-.33,.89-.74,1.34-1.25,1.34h-2.51v7.78c0,.77,.33,1.31,.98,1.64,.65,.33,1.23,.49,1.72,.49s.8,.24,.91,.72c.11,.48,.17,1.21,.17,2.17,0,1.9-.26,3.09-.77,3.57Z"/>
      <path class="cls-2" d="M115.89,33.56c-2.58,0-4.61-.61-6.08-1.83-.6-.51-1.11-1.26-1.55-2.25-.44-.99-.66-2.15-.66-3.49s.32-2.49,.96-3.49c.64-.99,1.41-1.76,2.32-2.3,.91-.54,1.97-.98,3.19-1.32,1.84-.48,3.87-.72,6.08-.72h1.4c0-1.16-.4-1.98-1.19-2.47-.34-.2-.86-.3-1.55-.3s-1.53,.18-2.51,.55c-.98,.37-1.79,.74-2.45,1.13-.65,.38-1.09,.57-1.32,.57-.51,0-1.21-.67-2.08-2.02-.88-1.35-1.32-2.57-1.32-3.68,0-.37,.52-.85,1.57-1.45,1.05-.6,2.53-1.14,4.44-1.64,1.91-.5,3.78-.74,5.59-.74s3.38,.15,4.7,.45c1.32,.3,2.4,.66,3.23,1.08,.84,.43,1.55,.99,2.13,1.7,.58,.71,1.02,1.35,1.32,1.91,.3,.57,.52,1.3,.66,2.21,.2,1.05,.3,2.34,.3,3.87v12.8c0,.31-.76,.56-2.28,.74-1.52,.18-3.02,.28-4.51,.28s-2.45-.04-2.89-.13c-.44-.08-.7-.18-.79-.3-.08-.11-.16-.31-.21-.59l-.34-2.42h-.34c-.71,2.55-2.65,3.83-5.83,3.83Zm5.7-7.06v-4.98c-.74,0-1.33,.31-1.79,.94-.45,.62-.68,1.33-.68,2.13,0,1.87,.43,2.81,1.28,2.81,.37,0,.66-.09,.87-.28,.21-.18,.32-.39,.32-.62Z"/>
      <path class="cls-2" d="M147.11,1.96v30.2c0,.31-.81,.56-2.42,.74s-3.28,.28-5,.28-2.82-.08-3.32-.23c-.5-.16-.74-.42-.74-.79V2.72c0-.62,.8-1.23,2.4-1.83,1.6-.6,3.32-.89,5.17-.89,2.61,0,3.91,.65,3.91,1.96Z"/>
      <path class="cls-4" d="M18.11,70.45c-1.94,.21-3.87,.31-5.81,.31s-3.16-.09-3.68-.26c-.52-.17-.78-.46-.78-.87v-20.31H1.27c-.35,0-.65-.44-.9-1.32-.25-.88-.38-2.2-.38-3.94s.19-3.32,.57-4.72c.38-1.4,.88-2.1,1.51-2.1H27.62c.47,0,.79,.44,.97,1.32,.17,.88,.26,2.16,.26,3.83s-.17,3.24-.52,4.72c-.35,1.48-.82,2.22-1.42,2.22h-5.9v20.31c0,.35-.97,.62-2.9,.83Z"/>
      <path class="cls-4" d="M45.52,71.19c-2.36,0-4.39-.21-6.09-.61-1.7-.41-3.24-1.13-4.63-2.17-2.87-2.08-4.3-5.95-4.3-11.62,0-5.04,1.46-8.64,4.39-10.81,2.74-2.01,6.28-3.02,10.62-3.02,1.86,0,3.45,.09,4.77,.26,1.32,.17,2.67,.54,4.04,1.11,1.37,.57,2.47,1.34,3.31,2.31,.83,.98,1.52,2.32,2.05,4.04,.54,1.72,.8,3.75,.8,6.12,0,4.79-1.35,8.38-4.06,10.79s-6.34,3.61-10.91,3.61Zm-1.65-9.21c.22,1.13,.45,1.81,.68,2.03,.24,.22,.55,.33,.94,.33s.71-.11,.94-.33c.24-.22,.46-.9,.66-2.03,.2-1.13,.31-2.56,.31-4.27s-.04-3.04-.12-3.97c-.08-.93-.17-1.64-.28-2.15s-.26-.9-.45-1.18c-.28-.41-.62-.61-1.02-.61s-.72,.12-.97,.35c-.25,.24-.49,.93-.71,2.08-.22,1.15-.33,2.78-.33,4.89s.11,3.73,.33,4.86Z"/>
      <path class="cls-4" d="M72.34,71.19c-3.53,0-5.99-.91-7.39-2.74-1.4-1.83-2.1-5.01-2.1-9.54v-12.84c0-.63,.93-1.24,2.79-1.82,1.86-.58,3.81-.87,5.86-.87,2.74,0,4.11,.71,4.11,2.12v11.99c0,2.39,.09,4.13,.28,5.22,.19,1.09,.66,1.63,1.42,1.63,1.01,0,1.51-.43,1.51-1.28v-17c0-.66,.98-1.28,2.93-1.84,1.95-.57,4.08-.85,6.38-.85s3.45,.61,3.45,1.84v24.32c0,.44-.99,.75-2.97,.94-1.98,.19-3.94,.28-5.86,.28s-2.9-.25-2.93-.76l-.47-3.07h-.38c-.28,1.13-.85,2.06-1.7,2.79-.44,.38-1.09,.72-1.96,1.02-.87,.3-1.85,.45-2.95,.45Z"/>
      <path class="cls-4" d="M107.15,55.84v13.79c0,.35-.89,.62-2.67,.83-1.78,.21-3.62,.31-5.52,.31s-3.14-.09-3.71-.26c-.57-.17-.85-.46-.85-.87v-23.28c0-.6,.87-1.24,2.62-1.94,1.75-.69,3.65-1.04,5.71-1.04s3.22,.57,3.47,1.7l.47,2.17h.33c.44-1.2,1.49-2.21,3.16-3.05,1.67-.83,3.34-1.25,5.01-1.25s2.84,.27,3.52,.8c.68,.54,1.02,1.22,1.02,2.05s-.06,1.9-.19,3.19c-.13,1.29-.43,2.69-.92,4.2-.49,1.51-1.13,2.27-1.91,2.27-.32,0-1.31-.24-2.98-.71-1.67-.47-3.05-.71-4.13-.71s-1.76,.16-2.03,.47c-.27,.31-.4,.75-.4,1.32Z"/>
      <path class="cls-4" d="M134.44,71.19c-5.23,0-9.05-.5-11.47-1.51-1.23-.54-1.84-1.05-1.84-1.56,0-1.29,.38-2.8,1.13-4.53,.76-1.73,1.42-2.6,1.98-2.6,.31,0,1.38,.35,3.19,1.04,1.81,.69,3.34,1.04,4.58,1.04s2.06-.08,2.46-.24c.39-.16,.59-.46,.59-.92s-.32-.82-.94-1.09c-.63-.27-1.42-.45-2.36-.54s-1.96-.28-3.05-.57-2.1-.65-3.05-1.09-1.73-1.17-2.36-2.2c-.63-1.02-.94-2.12-.94-3.31s.03-2.06,.09-2.64c.06-.58,.32-1.4,.78-2.46,.46-1.05,1.1-1.91,1.94-2.57,.83-.66,2.12-1.26,3.87-1.79s3.71-.8,5.88-.8,3.99,.07,5.45,.21,2.61,.32,3.45,.54c.83,.22,1.52,.47,2.05,.76,.91,.47,1.37,.99,1.37,1.56,0,1.23-.44,2.64-1.32,4.25s-1.58,2.41-2.1,2.41-1.65-.28-3.38-.83c-1.73-.55-3.01-.83-3.83-.83-1.32,0-1.98,.38-1.98,1.13,0,.47,.45,.83,1.35,1.06,.9,.24,1.98,.48,3.23,.73,1.26,.25,2.53,.61,3.8,1.06,1.27,.46,2.36,1.28,3.26,2.48,.9,1.2,1.35,2.71,1.35,4.53,0,6.17-4.39,9.26-13.18,9.26Z"/>
    </g>
    <g>
      <rect class="cls-1" x="88.8" y="66.66" width="59.19" height="16.34" rx="3.06" ry="3.06" transform="translate(-4.22 7.14) rotate(-3.39)"/>
      <g>
        <path class="cls-3" d="M94.71,81.46c-.52,.03-.86,.02-1.04-.02-.18-.05-.27-.14-.28-.27l-.57-9.63c-.01-.23,.27-.47,.86-.73,.58-.26,1.25-.41,1.99-.45,.66-.04,1.1,.08,1.33,.34,.08,.1,.12,.2,.13,.3l.41,6.86c1.25-.16,2.2-.25,2.84-.29,.22-.01,.35,.32,.39,1.01,.04,.69,.03,1.28-.03,1.78-.06,.5-.17,.76-.33,.76l-5.68,.34Z"/>
        <path class="cls-3" d="M105.62,80.64c-.29,.13-.81,.22-1.58,.26-.76,.05-1.4,.01-1.92-.1-.52-.11-.79-.27-.8-.49-.01-.25,.35-1.86,1.1-4.83,.75-2.97,1.17-4.68,1.28-5.13,.04-.14,.45-.27,1.23-.41,.77-.13,1.61-.23,2.5-.28s1.39,.07,1.51,.38c2.33,6.36,3.5,9.6,3.51,9.7,0,.1-.05,.21-.17,.32-.28,.24-.84,.39-1.7,.44-1.83,.11-2.77-.05-2.84-.48l-.17-1-1.49,.09-.03,.87c0,.3-.15,.52-.44,.65Zm1.45-4.53l-.4-2.77-.34,.02-.1,2.8,.84-.05Z"/>
        <path class="cls-3" d="M117.33,80.02c-.63,.1-1.26,.18-1.9,.21-.63,.04-1.04,.03-1.21-.01-.17-.05-.26-.14-.27-.27l-.39-6.66-2.15,.13c-.11,0-.22-.13-.32-.42-.1-.28-.17-.71-.2-1.28-.03-.57,0-1.09,.09-1.56,.1-.47,.25-.71,.46-.72l8.37-.5c.15,0,.27,.13,.34,.42,.07,.29,.13,.7,.16,1.25,.03,.55,0,1.07-.08,1.56-.09,.49-.23,.74-.42,.75l-1.94,.12,.39,6.66c0,.11-.3,.22-.94,.33Z"/>
        <path class="cls-3" d="M124.02,79.55c-.29,.13-.81,.22-1.58,.26-.76,.05-1.4,.01-1.92-.1-.52-.11-.79-.27-.8-.49-.01-.25,.35-1.86,1.1-4.83,.75-2.97,1.17-4.68,1.28-5.13,.04-.14,.45-.27,1.23-.41,.77-.13,1.61-.23,2.5-.28,.89-.05,1.4,.07,1.51,.38,2.33,6.36,3.5,9.6,3.51,9.7,0,.1-.05,.21-.17,.32-.28,.24-.84,.39-1.7,.44-1.83,.11-2.77-.05-2.84-.48l-.17-1-1.49,.09-.03,.87c0,.3-.15,.52-.44,.65Zm1.45-4.53l-.4-2.77-.34,.02-.1,2.8,.84-.05Z"/>
        <path class="cls-3" d="M134.04,79.13c-.26,.02-.63,.04-1.12,.07-.49,.03-.83,.01-1.01-.05-.18-.06-.27-.17-.28-.32l-.58-9.77c-.01-.24,.29-.44,.92-.62,.63-.17,1.3-.29,2.02-.33,.72-.04,1.24,.02,1.56,.19,.32,.17,.51,.35,.58,.56l1.29,4.02h.14s.76-3.97,.76-3.97c.06-.28,.38-.55,.97-.79s1.25-.39,1.97-.44c.72-.04,1.26-.02,1.61,.08,.35,.09,.53,.23,.54,.4l.59,9.94c0,.13-.28,.26-.86,.38s-1.3,.2-2.14,.25c-.85,.05-1.28-.07-1.3-.37-.05-.82-.05-2.27,0-4.36h-.14s-.57,4.09-.57,4.09c-.02,.16-.14,.28-.36,.36-.22,.08-.55,.14-.99,.17-.44,.03-.72,.01-.82-.04-.1-.06-.17-.17-.21-.34l-1.08-3.99h-.14c.31,2.12,.49,3.57,.54,4.34,.02,.27-.62,.46-1.91,.56Z"/>
      </g>
    </g>
  </g>
</svg>